# xmcd
#
# Track frame offsets: 
#        150
#        21283
#        46133
#        71658
#        87983
#        110643
#        134808
#        146468
#        169130
#
# Disc length: 2966 seconds
#
# Revision: 3
# Processed by: cddbd v1.5.2PL0 Copyright (c) Steve Scherf et al.
# Submitted via: ExactAudioCopy v0.99pb5
#
DISCID=820b9409
DTITLE=Albert King - Blues At Sunset (Live At Wattstax And Montreux)
DYEAR=1993
DGENRE=Blues
TTITLE0=Match Box Blues
TTITLE1=Got To Be Some Changes Made
TTITLE2=I'll Play The Blues For You
TTITLE3=Killing Floor
TTITLE4=Angel Of Mercy
TTITLE5=Match Box Blues
TTITLE6=Watermelon Man
TTITLE7=Breaking Up Somebody's Home
TTITLE8=Call It Stormy Monday
EXTD=
EXTT0=
EXTT1=
EXTT2=
EXTT3=
EXTT4=
EXTT5=
EXTT6=
EXTT7=
EXTT8=
PLAYORDER=
